.
..............................Site Info...........................

 -   http://www.scenetime.com  *_*   

Good news ! SceneTime will open sign up on Easter day for one day . Its a good chance to get on on Easter day .

Scenetime .Always on time . friendly online private torrent community ..

     We care to share . Join us on  http://www.scenetime.com 

    Be the first to get new release at  http://www.scenetime.com

        Seed back for speed


...................................NFO:.................................................[align=center]
[IMG]http://i1127.photobucket.com/albums/l621/PR3D_PICs/coverdosk.jpg[/IMG]

[url=http://www.imdb.com/title/tt0131857/]IMDb Link[/url]

[IMG]http://i1127.photobucket.com/albums/l621/PR3D_PICs/INFO.png[/IMG]

General

Format                         : Matroska
Format version                 : Version 2
File size                      : 705 MiB
Duration                       : 1h 38mn
Overall bit rate               : 997 Kbps
Movie name                     : Avidemux
Writing application            : Lavf53.24.0
Writing library                : Lavf53.24.0
AUTHOR                         : Avidemux

Video
ID                             : 1
Format                         : AVC
Format/Info                    : Advanced Video Codec
Format profile                 : High@L3.0
Format settings, CABAC         : Yes
Format settings, ReFrames      : 4 frames
Codec ID                       : V_MPEG4/ISO/AVC
Duration                       : 1h 38mn
Bit rate                       : 849 Kbps
Width                          : 720 pixels
Height                         : 388 pixels
Display aspect ratio           : 1.856
Frame rate mode                : Variable
Frame rate                     : 25.000 fps
Color space                    : YUV
Chroma subsampling             : 4:2:0
Bit depth                      : 8 bits
Scan type                      : Progressive
Bits/(Pixel*Frame)             : 0.122
Stream size                    : 600 MiB (85%)
Writing library                : x264 core 120 r2120 0c7dab9
Language                       : English
Default                        : Yes
Forced                         : No
Matrix coefficients            : SMPTE 240M

Audio
ID                             : 2
Format                         : AC-3
Format/Info                    : Audio Coding 3
Mode extension                 : CM (complete main)
Codec ID                       : A_AC3
Duration                       : 1h 38mn
Bit rate mode                  : Constant
Bit rate                       : 128 Kbps
Channel(s)                     : 2 channels
Channel positions              : Front: L R
Sampling rate                  : 48.0 KHz
Bit depth                      : 16 bits
Compression mode               : Lossy
Delay relative to video        : -40ms
Stream size                    : 90.5 MiB (13%)
Language                       : English
Default                        : Yes
Forced                         : No


[IMG]http://i1127.photobucket.com/albums/l621/PR3D_PICs/SCREEN-1.png[/IMG]

[IMG]http://i1127.photobucket.com/albums/l621/PR3D_PICs/screens-86.jpg[/IMG]

[youtube]Y8WdDmAFcJw[/youtube]

[IMG]http://i1127.photobucket.com/albums/l621/PR3D_PICs/predii2.gif[/IMG]

[IMG]http://i1127.photobucket.com/albums/l621/PR3D_PICs/ShMee-1.jpg[/IMG]

[IMG]http://i1127.photobucket.com/albums/l621/PR3D_PICs/GRSIG-1.png[/IMG]

[IMG]http://i1127.photobucket.com/albums/l621/PR3D_PICs/GREET.png[/IMG]
[/align]